<svg width="100" height="98" viewBox="0 0 100 98" fill="none" xmlns="http://www.w3.org/2000/svg">
<g clip-path="url(#clip0_11_207)">
<path d="M97.0703 7.784H84.2377C84.2842 6.40924 84.3102 5.02637 84.3102 3.63686C84.3102 2.07172 82.9979 0.803223 81.3805 0.803223H18.6195C17.0021 0.803223 15.6898 2.07172 15.6898 3.63686C15.6898 5.02637 15.7158 6.40924 15.7623 7.784H2.92969C1.31149 7.784 0 9.05249 0 10.6176C0 23.3144 3.43094 35.2931 9.66034 44.3482C15.818 53.3 24.0204 58.4345 32.8812 58.934C34.89 61.0482 37.0132 62.772 39.225 64.087V76.6811H34.3102C28.3684 76.6811 23.5352 81.3566 23.5352 87.1028V91.8566H23.3269C21.7087 91.8566 20.3972 93.1258 20.3972 94.6902C20.3972 96.2553 21.7087 97.5238 23.3269 97.5238H76.6731C78.2913 97.5238 79.6028 96.2553 79.6028 94.6902C79.6028 93.1258 78.2913 91.8566 76.6731 91.8566H76.4648V87.1028C76.4648 81.3566 71.6316 76.6811 65.6898 76.6811H60.775V64.087C62.9868 62.7727 65.1108 61.0482 67.1196 58.934C75.9796 58.4345 84.182 53.3 90.3404 44.3482C96.5698 35.2931 100 23.3144 100 10.6176C100 9.05249 98.6885 7.784 97.0703 7.784ZM14.5386 41.2091C9.40018 33.7405 6.38123 23.9719 5.92117 13.4513H16.0896C17.1463 26.3841 20.285 38.3385 25.1907 47.8275C25.972 49.3388 26.7891 50.7667 27.6367 52.1112C22.7638 50.3313 18.2541 46.6107 14.5386 41.2091ZM70.6055 87.1028V91.8573H29.3945V87.1028C29.3945 84.4817 31.5994 82.3484 34.3102 82.3484H65.6898C68.4006 82.3484 70.6055 84.4817 70.6055 87.1028ZM54.9156 76.6811H45.0844V66.5494C46.6949 66.9597 48.336 67.173 50 67.173C51.664 67.173 53.3051 66.9597 54.9156 66.5494V76.6811ZM56.7299 59.8077C56.5979 59.8601 56.4713 59.9236 56.3499 59.9937C54.2793 60.9899 52.1515 61.5057 50 61.5057C47.8493 61.5057 45.7222 60.9899 43.6523 59.9952C43.5295 59.9236 43.4021 59.8601 43.2686 59.8063C40.9714 58.6315 38.7489 56.8575 36.647 54.5264C36.5364 54.3736 36.412 54.2327 36.274 54.1043C34.1873 51.7083 32.2243 48.761 30.4314 45.2927C25.0473 34.8784 21.9376 21.1847 21.5836 6.47049H78.4164C78.0617 21.1847 74.9519 34.8791 69.5686 45.2927C67.7757 48.761 65.8127 51.7083 63.7268 54.1043C63.588 54.2327 63.4621 54.3744 63.3522 54.5271C61.2503 56.859 59.0271 58.6322 56.7299 59.8077ZM85.4614 41.2091C81.7459 46.6107 77.2362 50.3313 72.3633 52.1112C73.2109 50.7667 74.028 49.3388 74.8093 47.8275C79.715 38.3385 82.8529 26.3841 83.9104 13.4513H94.0788C93.6188 23.9719 90.5998 33.7405 85.4614 41.2091Z" fill="#0F4C81"/>
</g>
<defs>
<clipPath id="clip0_11_207">
<rect width="100" height="96.7213" fill="white" transform="translate(0 0.803223)"/>
</clipPath>
</defs>
</svg>
