<svg width="100" height="98" viewBox="0 0 100 98" fill="none" xmlns="http://www.w3.org/2000/svg">
<path d="M97.4235 31.4056C93.9965 28.091 88.4201 28.0912 84.9919 31.4064C83.9376 32.427 77.2056 38.9431 76.1773 39.9386V17.4828C76.1773 15.2121 75.2629 13.0775 73.6027 11.4719L65.3159 3.4571C63.6559 1.85138 61.4485 0.967285 59.1007 0.967285H8.78968C3.94305 0.967285 0 4.78079 0 9.46818V89.1877C0 93.8751 3.94305 97.6886 8.78968 97.6886H67.3876C72.2342 97.6886 76.1773 93.8751 76.1773 89.1877V63.9931L97.4233 43.4278C100.858 40.1056 100.859 34.7281 97.4235 31.4056ZM58.5981 6.63455C59.1516 6.63455 60.2183 6.5418 61.1725 7.46443L69.4594 15.4793C70.3891 16.3787 70.3177 17.3642 70.3177 17.9691H58.5981V6.63455ZM70.3175 89.1877C70.3175 90.7502 69.0033 92.0214 67.3876 92.0214H8.78968C7.17414 92.0214 5.85979 90.7502 5.85979 89.1877V9.46818C5.85979 7.90572 7.17414 6.63455 8.78968 6.63455H52.7381V20.8027C52.7381 22.3676 54.0499 23.6364 55.668 23.6364H70.3175V45.6108C70.3175 45.6108 61.6735 53.9779 61.6731 53.9781L57.5316 57.9838C57.2101 58.2947 56.9675 58.674 56.8237 59.0913L52.6801 71.1135C52.3291 72.1317 52.6031 73.2544 53.3879 74.0132C54.1737 74.7732 55.335 75.0369 56.3862 74.6979L68.8168 70.6905C69.2482 70.5515 69.6405 70.3171 69.962 70.0059L70.3175 69.6621V89.1877ZM63.7467 59.9875L67.8901 63.9948L66.3074 65.5256L60.0923 67.5291L62.164 61.5181L63.7467 59.9875ZM72.0328 59.9866L67.8894 55.9793C70.0958 53.8436 79.8951 44.3581 81.9734 42.3465L86.1168 46.3538L72.0328 59.9866ZM93.279 39.4212L90.2587 42.3447L86.1153 38.3374L89.1366 35.4129C90.2796 34.308 92.1379 34.3082 93.2802 35.4129C94.4223 36.518 94.4283 38.3095 93.279 39.4212Z" fill="#0F4C81"/>
<path d="M55.6676 29.3037H14.6491C13.031 29.3037 11.7192 30.5724 11.7192 32.1373C11.7192 33.7023 13.031 34.971 14.6491 34.971H55.6676C57.2857 34.971 58.5975 33.7023 58.5975 32.1373C58.5975 30.5724 57.2857 29.3037 55.6676 29.3037Z" fill="#0F4C81"/>
<path d="M43.9481 40.6382H14.6491C13.031 40.6382 11.7192 41.9069 11.7192 43.4718C11.7192 45.0367 13.031 46.3054 14.6491 46.3054H43.9481C45.5662 46.3054 46.878 45.0367 46.878 43.4718C46.878 41.9069 45.5662 40.6382 43.9481 40.6382Z" fill="#0F4C81"/>
<path d="M43.9481 51.9724H14.6491C13.031 51.9724 11.7192 53.2411 11.7192 54.806C11.7192 56.371 13.031 57.6397 14.6491 57.6397H43.9481C45.5662 57.6397 46.878 56.371 46.878 54.806C46.878 53.2411 45.5662 51.9724 43.9481 51.9724Z" fill="#0F4C81"/>
<path d="M43.9481 63.3071H14.6491C13.031 63.3071 11.7192 64.5758 11.7192 66.1408C11.7192 67.7057 13.031 68.9744 14.6491 68.9744H43.9481C45.5662 68.9744 46.878 67.7057 46.878 66.1408C46.878 64.5758 45.5662 63.3071 43.9481 63.3071Z" fill="#0F4C81"/>
<path d="M55.6675 80.6865H38.0881C36.47 80.6865 35.1582 81.9552 35.1582 83.5202C35.1582 85.0851 36.47 86.3538 38.0881 86.3538H55.6675C57.2855 86.3538 58.5974 85.0851 58.5974 83.5202C58.5974 81.9552 57.2855 80.6865 55.6675 80.6865Z" fill="#0F4C81"/>
</svg>
