<svg width="100" height="97" viewBox="0 0 100 97" fill="none" xmlns="http://www.w3.org/2000/svg">
<g clip-path="url(#clip0_11_164)">
<path d="M99.4556 20.8548C99.4466 20.7139 99.4181 20.5737 99.3701 20.4407C99.3522 20.3888 99.3384 20.3392 99.3156 20.2888C99.2342 20.1133 99.1211 19.9535 98.9819 19.8165L78.9819 0.472272C78.8403 0.336888 78.6743 0.227478 78.492 0.149553C78.4424 0.127513 78.3919 0.114132 78.3407 0.0968158C78.1991 0.0495886 78.0526 0.0212523 77.9036 0.0125939C77.8752 0.0181038 77.845 0 77.8101 0H27.8101C23.2104 0.00550985 19.4824 3.61052 19.4767 8.06011V19.9244C8.0192 24.8116 0.625 35.7809 0.625 47.8931C0.625 60.0053 8.0192 70.9746 19.4767 75.8619V88.6612C19.4824 93.1108 23.2104 96.7158 27.8101 96.7213H91.1434C95.7438 96.7158 99.4718 93.1108 99.4767 88.6612V20.9563C99.4767 20.9209 99.4588 20.8902 99.4556 20.8548ZM93.7866 19.3443H81.1434C80.223 19.3443 79.4767 18.6225 79.4767 17.7322V5.50355L93.7866 19.3443ZM3.99333 47.8931C3.98356 40.6217 6.96533 33.6462 12.2811 28.5048C17.5968 23.3633 24.8096 20.4793 32.3267 20.4887C33.2739 20.4887 34.2139 20.5336 35.1416 20.621C48.029 21.8528 58.4009 31.4006 60.3101 43.7891C60.5314 45.1469 60.6478 46.5188 60.6584 47.8931C60.6706 53.0558 59.1618 58.1147 56.3102 62.4785C54.0487 65.9654 51.001 68.9124 47.395 71.0982C38.6637 76.4018 27.6432 76.6994 18.6198 71.8743C9.59635 67.0501 3.99495 57.8652 3.99333 47.8931ZM51.6838 72.1089C51.9116 71.9381 52.137 71.7688 52.36 71.5933C53.1828 70.9526 53.9705 70.2717 54.7217 69.5539C55.4639 68.8274 56.1678 68.0662 56.8302 67.2712C57.0117 67.0556 57.1867 66.836 57.3633 66.6156C57.5651 66.3605 57.784 66.1189 57.9769 65.8591L72.1851 79.618C73.1258 80.5193 73.6556 81.7472 73.6556 83.0278C73.6556 84.3092 73.1258 85.5364 72.1851 86.4384C70.2173 88.2779 67.0964 88.2779 65.1286 86.4384L50.9017 72.7024C51.1702 72.5135 51.4217 72.3041 51.6838 72.1089ZM91.1434 93.4973H27.8101C25.0488 93.4973 22.8101 91.3319 22.8101 88.6612V77.1205C22.9134 77.1527 23.0216 77.174 23.1266 77.2047C23.3936 77.2834 23.6637 77.3464 23.9339 77.4188C24.5573 77.5802 25.1855 77.7415 25.8203 77.8619C26.132 77.9249 26.4437 77.9832 26.7586 78.0367C27.3934 78.1445 28.0339 78.2295 28.6768 78.3011C28.964 78.3326 29.2472 78.372 29.5353 78.3956C30.459 78.472 31.3883 78.5215 32.3267 78.5215C37.8361 78.5255 43.2495 77.1307 48.0257 74.4757L62.762 88.7148C64.8299 90.9037 67.9744 91.8184 70.9473 91.0942C73.9209 90.3709 76.2435 88.1268 76.9938 85.2514C77.7449 82.3761 76.8026 79.3339 74.5402 77.3322L59.8104 63.0767C62.5553 58.4571 63.9982 53.2211 63.9933 47.8931C63.9933 46.8722 63.9429 45.8592 63.8403 44.8548C63.1291 37.8117 59.9056 31.2282 54.7233 26.2339C48.7964 20.4706 40.7316 17.2411 32.3267 17.2647C31.3883 17.2647 30.459 17.3151 29.5353 17.3906C29.2472 17.415 28.9616 17.4536 28.6751 17.4859C28.0339 17.5551 27.3966 17.6433 26.7619 17.7504C26.4453 17.8039 26.1296 17.8621 25.8154 17.9259C25.1888 18.0518 24.5671 18.1998 23.9502 18.3643C23.6735 18.4367 23.3968 18.5013 23.1169 18.5815C23.0135 18.6122 22.9085 18.6335 22.8052 18.6658V8.06011C22.8052 5.38941 25.0439 3.22404 27.8052 3.22404H76.1434V17.7322C76.1434 20.4029 78.3822 22.5683 81.1434 22.5683H96.1434V88.6612C96.1434 91.3319 93.9054 93.4973 91.1434 93.4973Z" fill="#0F4C81"/>
<path d="M69.4766 11.2841C69.4766 10.3939 68.7303 9.67212 67.8099 9.67212H31.1432C30.2228 9.67212 29.4766 10.3939 29.4766 11.2841C29.4766 12.1744 30.2228 12.8962 31.1432 12.8962H67.8099C68.7303 12.8962 69.4766 12.1744 69.4766 11.2841Z" fill="#0F4C81"/>
<path d="M87.8102 38.6885H67.8102C66.8898 38.6885 66.1436 39.4103 66.1436 40.3005C66.1436 41.1907 66.8898 41.9125 67.8102 41.9125H87.8102C88.7306 41.9125 89.4769 41.1907 89.4769 40.3005C89.4769 39.4103 88.7306 38.6885 87.8102 38.6885Z" fill="#0F4C81"/>
<path d="M87.8102 48.3606H67.8102C66.8898 48.3606 66.1436 49.0824 66.1436 49.9726C66.1436 50.8629 66.8898 51.5846 67.8102 51.5846H87.8102C88.7306 51.5846 89.4769 50.8629 89.4769 49.9726C89.4769 49.0824 88.7306 48.3606 87.8102 48.3606Z" fill="#0F4C81"/>
<path d="M89.4766 59.645C89.4766 58.7547 88.7303 58.033 87.8099 58.033H66.1432C65.2228 58.033 64.4766 58.7547 64.4766 59.645C64.4766 60.5352 65.2228 61.257 66.1432 61.257H87.8099C88.7303 61.257 89.4766 60.5352 89.4766 59.645Z" fill="#0F4C81"/>
<path d="M89.4769 69.3169C89.4769 68.4266 88.7306 67.7048 87.8102 67.7048H72.8102C71.8898 67.7048 71.1436 68.4266 71.1436 69.3169C71.1436 70.2071 71.8898 70.9289 72.8102 70.9289H87.8102C88.7306 70.9289 89.4769 70.2071 89.4769 69.3169Z" fill="#0F4C81"/>
<path d="M69.4767 20.9563C69.4767 20.066 68.7305 19.3442 67.8101 19.3442H54.4767C53.5563 19.3442 52.8101 20.066 52.8101 20.9563C52.8101 21.8465 53.5563 22.5683 54.4767 22.5683H67.8101C68.7305 22.5683 69.4767 21.8465 69.4767 20.9563Z" fill="#0F4C81"/>
<path d="M89.4769 30.6284C89.4769 29.7381 88.7306 29.0164 87.8102 29.0164H62.8102C61.8898 29.0164 61.1436 29.7381 61.1436 30.6284C61.1436 31.5186 61.8898 32.2404 62.8102 32.2404H87.8102C88.7306 32.2404 89.4769 31.5186 89.4769 30.6284Z" fill="#0F4C81"/>
<path d="M26.1432 40.3005H37.8099C38.7303 40.3005 39.4766 39.5787 39.4766 38.6884C39.4766 37.7982 38.7303 37.0764 37.8099 37.0764H26.1432C25.2228 37.0764 24.4766 37.7982 24.4766 38.6884C24.4766 39.5787 25.2228 40.3005 26.1432 40.3005Z" fill="#0F4C81"/>
<path d="M46.1434 48.3608C46.1434 47.4706 45.3971 46.7488 44.4767 46.7488H19.4767C18.5563 46.7488 17.8101 47.4706 17.8101 48.3608C17.8101 49.251 18.5563 49.9728 19.4767 49.9728H44.4767C45.3971 49.9728 46.1434 49.251 46.1434 48.3608Z" fill="#0F4C81"/>
<path d="M37.8099 56.4207H26.1432C25.2228 56.4207 24.4766 57.1424 24.4766 58.0327C24.4766 58.9229 25.2228 59.6447 26.1432 59.6447H37.8099C38.7303 59.6447 39.4766 58.9229 39.4766 58.0327C39.4766 57.1424 38.7303 56.4207 37.8099 56.4207Z" fill="#0F4C81"/>
<path d="M44.1902 69.1557C48.2551 67.0619 51.6259 63.8993 53.9135 60.0337C54.0453 59.811 54.1885 59.5953 54.3122 59.3694C54.3765 59.2529 54.427 59.1325 54.4888 59.016C54.7419 58.5453 54.9885 58.0746 55.2066 57.5928C55.4255 57.1111 55.5972 56.653 55.7755 56.1792C55.8267 56.0422 55.8918 55.9084 55.9423 55.7699C60.1806 43.8489 54.2398 30.778 42.2932 25.7397C30.3458 20.7013 16.4013 25.3862 10.2554 36.5027C8.32103 40.0046 7.31355 43.9158 7.32331 47.8869C7.30785 56.4067 11.9343 64.3038 19.4986 68.6692C27.0629 73.0354 36.4452 73.2235 44.1902 69.1651V69.1557ZM21.94 66.2834C20.126 65.3271 18.4643 64.1228 17.0051 62.7076C15.9927 61.7292 15.0821 60.6579 14.2854 59.5079C13.8915 58.938 13.5294 58.3532 13.1965 57.7526C8.18025 48.5913 10.8381 37.2592 19.4506 31.0889C28.0631 24.9187 40.0455 25.7625 47.6439 33.074C54.3733 39.6441 55.8869 49.6909 51.3769 57.8455V57.8589C49.3895 61.4552 46.3427 64.3999 42.6236 66.3204C36.1718 69.7106 28.3813 69.6988 21.94 66.2897V66.2834Z" fill="#0F4C81"/>
<path d="M91.1432 77.3772C90.2228 77.3772 89.4766 78.099 89.4766 78.9892V85.4373C89.4766 86.3275 88.7303 87.0493 87.8099 87.0493H81.1432C80.2228 87.0493 79.4766 87.7711 79.4766 88.6613C79.4766 89.5516 80.2228 90.2734 81.1432 90.2734H87.8099C90.5719 90.2734 92.8099 88.108 92.8099 85.4373V78.9892C92.8099 78.099 92.0636 77.3772 91.1432 77.3772Z" fill="#0F4C81"/>
</g>
<defs>
<clipPath id="clip0_11_164">
<rect width="100" height="96.7213" fill="white"/>
</clipPath>
</defs>
</svg>
