<svg width="100" height="98" viewBox="0 0 100 98" fill="none" xmlns="http://www.w3.org/2000/svg">
<g clip-path="url(#clip0_11_197)">
<path d="M71.4844 75.7751C70.4062 75.7751 69.5312 76.6215 69.5312 77.6642C69.5312 78.707 70.4062 79.5533 71.4844 79.5533C72.5625 79.5533 73.4375 78.707 73.4375 77.6642C73.4375 76.6215 72.5625 75.7751 71.4844 75.7751Z" fill="#0F4C81"/>
<path d="M76.2934 69.6665L67.0102 66.6741L63.6775 60.2272C66.6799 57.2716 68.7645 53.3608 69.4674 49.2817L69.883 46.8721H73.4375C76.6684 46.8721 79.2969 44.3298 79.2969 41.2049V29.3036C79.2969 13.679 66.1543 0.967285 50 0.967285C33.8043 0.967285 20.7031 13.6425 20.7031 29.3036V41.2049C20.7031 43.6675 22.3361 45.7674 24.6094 46.5472V48.7612C24.6094 51.8862 27.2379 54.4285 30.4688 54.4285H32.184C33.0307 56.2075 34.1266 57.8551 35.4602 59.3352C35.7367 59.6428 36.0252 59.9409 36.3207 60.2308L32.9898 66.6741L23.7064 69.6666C12.9125 73.1479 5.07812 84.1384 5.07812 95.7995C5.07812 96.8429 5.95254 97.6886 7.03125 97.6886H92.9688C94.0473 97.6886 94.9219 96.8429 94.9219 95.7995C94.9219 84.1384 87.0877 73.1479 76.2934 69.6665ZM75.3906 41.2049C75.3906 42.2465 74.5145 43.094 73.4375 43.094H70.4566C70.9531 39.3743 71.284 35.4161 71.417 31.5176C71.4209 31.4077 71.424 31.3008 71.4275 31.1927H75.3906V41.2049ZM26.5625 43.094C25.4855 43.094 24.6094 42.2465 24.6094 41.2049V31.1927H28.5738C28.5803 31.3897 28.5871 31.5877 28.5947 31.787C28.5949 31.7938 28.5953 31.8004 28.5955 31.8072C28.5955 31.8078 28.5955 31.8084 28.5955 31.8089C28.7322 35.6007 29.0588 39.4561 29.5439 43.0938H26.5625V43.094ZM30.4688 50.6503C29.3918 50.6503 28.5156 49.8029 28.5156 48.7612V46.8721H30.1168L30.5324 49.2824C30.6117 49.7405 30.7092 50.1969 30.8219 50.6503H30.4688ZM28.5189 27.4145H24.6836C25.6729 14.7537 36.5971 4.74546 50 4.74546C63.3434 4.74546 74.3156 14.7523 75.3162 27.4145H71.4813C71.3406 16.9817 62.5568 8.52364 51.7482 8.52364H48.2521C37.4437 8.52364 28.6594 16.9817 28.5189 27.4145ZM48.252 12.3018H51.7481C60.4998 12.3018 67.5832 19.2255 67.5781 27.6809C67.5781 28.2754 67.5732 28.793 67.5629 29.2639C67.5629 29.27 67.5627 29.2762 67.5627 29.2825L65.1197 28.9449C58.483 28.0283 52.2166 24.9978 47.4748 20.4115C47.1084 20.0573 46.6117 19.8582 46.0938 19.8582C40.8484 19.8582 35.8273 22.1697 32.5082 26.0748C33.3262 18.3826 40.0494 12.3018 48.252 12.3018ZM34.8711 50.6503C33.8934 47.5044 32.7746 38.2479 32.5273 32.3161L35.1561 28.926C37.5703 25.8135 41.3264 23.8797 45.3219 23.6577C50.5791 28.4968 57.3803 31.6924 64.5674 32.6849L67.4428 33.0824C67.2506 37.0277 66.8578 40.9869 66.2951 44.6281C66.2949 44.6292 66.2947 44.6306 66.2945 44.6319C66.1156 45.8025 65.9746 46.5559 65.6145 48.6602C64.5801 54.6609 59.9508 60.0873 53.8396 61.5651C51.3246 62.1724 48.675 62.1723 46.1613 61.5651C42.3455 60.6425 38.8467 58.0888 36.5887 54.4285H40.5703C41.3766 56.6272 43.5475 58.2067 46.0938 58.2067H50C53.2373 58.2067 55.8594 55.6708 55.8594 52.5394C55.8594 49.4145 53.2309 46.8721 50 46.8721H46.0938C43.4908 46.8721 41.352 48.4983 40.567 50.6503H34.8711ZM45.9295 65.3882C47.2691 65.6612 48.635 65.8008 50 65.8008C51.0686 65.8008 52.1373 65.7143 53.1939 65.5465L49.7428 69.0767L45.9295 65.3882ZM47.0576 71.823L40.8627 78.1594C39.1572 75.002 37.6918 71.7159 36.4898 68.3518L38.8162 63.8516L47.0576 71.823ZM60.8527 63.2116L63.5098 68.3516C62.3059 71.7214 60.84 75.0086 59.1363 78.1622L52.5059 71.7492L60.8527 63.2116ZM44.1406 52.5394C44.1406 51.4964 45.0152 50.6503 46.0938 50.6503H50C51.077 50.6503 51.9531 51.4978 51.9531 52.5394C51.9531 53.5826 51.0783 54.4285 50 54.4285H46.0938C45.0168 54.4285 44.1406 53.5811 44.1406 52.5394ZM9.0625 93.9105C9.83652 84.5521 16.2758 76.0459 24.9418 73.2508L33.1633 70.6008C34.6695 74.6293 36.5355 78.5448 38.7225 82.264C38.7262 82.2705 38.7297 82.2769 38.7334 82.2831C38.7334 82.2833 38.7336 82.2833 38.7336 82.2835C40.3314 85.0017 42.1299 87.6579 44.0797 90.1797L46.4824 93.9105H9.0625ZM50 92.2265L47.3512 88.1134C47.3215 88.0673 47.2898 88.0225 47.2562 87.9791C45.6746 85.9385 44.1992 83.8044 42.8555 81.62L49.8209 74.4955L57.1604 81.5943C55.8076 83.7946 54.3271 85.9376 52.7441 87.9787C52.6484 88.1021 52.7842 87.9077 50 92.2265ZM53.5176 93.9105L55.9201 90.1799C57.8785 87.6485 59.6898 84.9709 61.3037 82.2208C61.3135 82.2041 61.3227 82.1871 61.3324 82.1705C61.3336 82.1684 61.3348 82.1665 61.3359 82.1645C63.4951 78.4808 65.3416 74.5992 66.8367 70.6008L75.058 73.2508C83.7242 76.0459 90.1635 84.5521 90.9375 93.9105H53.5176Z" fill="#0F4C81"/>
<path d="M85.0677 86.2654C83.7625 83.7384 81.8506 81.4934 79.5386 79.7732C78.6836 79.1368 77.4574 79.2915 76.7998 80.1185C76.142 80.9456 76.3019 82.1315 77.1568 82.7678C79.0033 84.1417 80.5302 85.935 81.573 87.9539C82.056 88.8888 83.2298 89.2651 84.1931 88.7996C85.158 88.3334 85.5496 87.1988 85.0677 86.2654Z" fill="#0F4C81"/>
</g>
<defs>
<clipPath id="clip0_11_197">
<rect width="100" height="96.7213" fill="white" transform="translate(0 0.967285)"/>
</clipPath>
</defs>
</svg>
