<svg width="40" height="40" viewBox="0 0 40 40" fill="none" xmlns="http://www.w3.org/2000/svg">
<g clip-path="url(#clip0_11_139)">
<path d="M39.1027 31.6117L32.9254 25.4336C31.695 24.2081 29.6574 24.2454 28.3841 25.5191L25.2719 28.6306C25.0753 28.5222 24.8717 28.4091 24.6578 28.289C22.6925 27.2 20.0026 25.7075 17.1721 22.8749C14.3332 20.0363 12.8392 17.3423 11.747 15.3757C11.6317 15.1674 11.5213 14.9665 11.4122 14.7757L13.5009 12.6901L14.5278 11.662C15.8031 10.3864 15.8382 8.34935 14.6107 7.12031L8.43332 0.941566C7.20577 -0.285748 5.16726 -0.248515 3.89202 1.02706L2.15103 2.77806L2.19861 2.82529C1.61483 3.57018 1.127 4.4293 0.76398 5.35576C0.429342 6.23764 0.220997 7.07917 0.125731 7.92244C-0.689951 14.6846 2.40017 20.8647 10.7864 29.251C22.3786 40.8425 31.7205 39.9668 32.1235 39.9241C33.0012 39.8192 33.8424 39.6094 34.6973 39.2775C35.6157 38.9187 36.4742 38.4315 37.2187 37.849L37.2567 37.8828L39.0205 36.1557C40.293 34.8804 40.3297 32.8427 39.1027 31.6117Z" fill="#0F4C81"/>
</g>
<defs>
<clipPath id="clip0_11_139">
<rect width="40" height="40" fill="white"/>
</clipPath>
</defs>
</svg>
